<svg width="28" height="28" viewBox="0 0 28 28" fill="none" xmlns="http://www.w3.org/2000/svg">
<path d="M27 14C27 21.1795 21.1797 26.9997 14 26.9997C6.82028 26.9997 1 21.1795 1 14C1 6.82048 6.82028 1.00031 14 1.00031C21.1797 1.00031 27 6.82048 27 14Z" fill="#F2EBED" stroke="#0A0010" stroke-width="2"/>
<path d="M7.8931 12.6771C7.64573 12.1833 7.0449 11.9836 6.55111 12.231C6.05733 12.4783 5.85757 13.0792 6.10495 13.5729L7.8931 12.6771ZM21.8934 13.5713C22.1398 13.0771 21.939 12.4766 21.4447 12.2301C20.9505 11.9837 20.35 12.1845 20.1036 12.6788L21.8934 13.5713ZM6.10495 13.5729C6.56911 14.4995 8.56968 18.4999 13.9985 18.4999V16.4999C9.80499 16.4999 8.30563 13.5006 7.8931 12.6771L6.10495 13.5729ZM13.9985 18.4999C19.4271 18.4999 21.4301 14.5003 21.8934 13.5713L20.1036 12.6788C19.6941 13.4997 18.1924 16.4999 13.9985 16.4999V18.4999Z" fill="#0A0010"/>
<ellipse cx="11.8122" cy="10.9376" rx="1.31247" ry="1.31247" fill="#0A0010"/>
<ellipse cx="16.1872" cy="10.9376" rx="1.31247" ry="1.31247" fill="#0A0010"/>
</svg>
